{
	"patcher" : 	{
		"fileversion" : 1,
		"appversion" : 		{
			"major" : 5,
			"minor" : 1,
			"revision" : 9
		}
,
		"rect" : [ 25.0, 69.0, 640.0, 480.0 ],
		"bglocked" : 0,
		"defrect" : [ 25.0, 69.0, 640.0, 480.0 ],
		"openrect" : [ 0.0, 0.0, 0.0, 0.0 ],
		"openinpresentation" : 0,
		"default_fontsize" : 12.0,
		"default_fontface" : 0,
		"default_fontname" : "Arial",
		"gridonopen" : 0,
		"gridsize" : [ 15.0, 15.0 ],
		"gridsnaponopen" : 0,
		"toolbarvisible" : 1,
		"boxanimatetime" : 200,
		"imprint" : 0,
		"enablehscroll" : 1,
		"enablevscroll" : 1,
		"devicewidth" : 0.0,
		"boxes" : [ 			{
				"box" : 				{
					"maxclass" : "message",
					"text" : "148032.9375",
					"fontsize" : 12.0,
					"numinlets" : 2,
					"patching_rect" : [ 520.0, 219.0, 117.0, 18.0 ],
					"numoutlets" : 1,
					"id" : "obj-7",
					"fontname" : "Arial",
					"outlettype" : [ "" ]
				}

			}
, 			{
				"box" : 				{
					"maxclass" : "number",
					"fontsize" : 12.0,
					"numinlets" : 1,
					"patching_rect" : [ 537.0, 390.0, 50.0, 20.0 ],
					"numoutlets" : 2,
					"id" : "obj-11",
					"fontname" : "Arial",
					"outlettype" : [ "int", "bang" ]
				}

			}
, 			{
				"box" : 				{
					"maxclass" : "newobj",
					"text" : "fromsymbol",
					"fontsize" : 12.0,
					"numinlets" : 1,
					"patching_rect" : [ 528.0, 341.0, 73.0, 20.0 ],
					"numoutlets" : 1,
					"id" : "obj-10",
					"fontname" : "Arial",
					"outlettype" : [ "" ]
				}

			}
, 			{
				"box" : 				{
					"maxclass" : "flonum",
					"fontsize" : 12.0,
					"numinlets" : 1,
					"patching_rect" : [ 468.0, 388.0, 50.0, 20.0 ],
					"numoutlets" : 2,
					"id" : "obj-9",
					"fontname" : "Arial",
					"outlettype" : [ "float", "bang" ]
				}

			}
, 			{
				"box" : 				{
					"maxclass" : "newobj",
					"text" : "fromsymbol",
					"fontsize" : 12.0,
					"numinlets" : 1,
					"patching_rect" : [ 441.0, 343.0, 73.0, 20.0 ],
					"numoutlets" : 1,
					"id" : "obj-8",
					"fontname" : "Arial",
					"outlettype" : [ "" ]
				}

			}
, 			{
				"box" : 				{
					"maxclass" : "message",
					"text" : "\"68.5\"",
					"fontsize" : 12.0,
					"numinlets" : 2,
					"patching_rect" : [ 381.0, 377.0, 50.0, 18.0 ],
					"numoutlets" : 1,
					"id" : "obj-6",
					"fontname" : "Arial",
					"outlettype" : [ "" ]
				}

			}
, 			{
				"box" : 				{
					"maxclass" : "message",
					"text" : "\"68.5\"",
					"fontsize" : 12.0,
					"numinlets" : 2,
					"patching_rect" : [ 317.0, 375.0, 59.0, 18.0 ],
					"numoutlets" : 1,
					"id" : "obj-5",
					"fontname" : "Arial",
					"outlettype" : [ "" ]
				}

			}
, 			{
				"box" : 				{
					"maxclass" : "newobj",
					"text" : "unpack s s s s s s s s s s",
					"fontsize" : 12.0,
					"numinlets" : 1,
					"patching_rect" : [ 416.0, 266.0, 143.0, 20.0 ],
					"numoutlets" : 10,
					"id" : "obj-4",
					"fontname" : "Arial",
					"outlettype" : [ "", "", "", "", "", "", "", "", "", "" ]
				}

			}
, 			{
				"box" : 				{
					"maxclass" : "message",
					"text" : "148032.921875",
					"fontsize" : 12.0,
					"numinlets" : 2,
					"patching_rect" : [ 438.0, 198.0, 117.0, 18.0 ],
					"numoutlets" : 1,
					"id" : "obj-3",
					"fontname" : "Arial",
					"outlettype" : [ "" ]
				}

			}
, 			{
				"box" : 				{
					"maxclass" : "message",
					"text" : "\"68.5\" \"68.5\" \"68.5\" \"68.5\" \"68.5\" \"68.5\" \"68.5\" \"68.5\" \"68.5\" \"68.5\"",
					"fontsize" : 12.0,
					"numinlets" : 2,
					"patching_rect" : [ 34.0, 200.0, 372.0, 18.0 ],
					"numoutlets" : 1,
					"id" : "obj-2",
					"fontname" : "Arial",
					"outlettype" : [ "" ]
				}

			}
, 			{
				"box" : 				{
					"maxclass" : "newobj",
					"text" : "lslreceive 10",
					"fontsize" : 12.0,
					"numinlets" : 1,
					"patching_rect" : [ 395.0, 109.0, 77.0, 20.0 ],
					"numoutlets" : 3,
					"id" : "obj-1",
					"fontname" : "Arial",
					"outlettype" : [ "list", "float", "float" ]
				}

			}
 ],
		"lines" : [ 			{
				"patchline" : 				{
					"source" : [ "obj-4", 3 ],
					"destination" : [ "obj-10", 0 ],
					"hidden" : 0,
					"midpoints" : [  ]
				}

			}
, 			{
				"patchline" : 				{
					"source" : [ "obj-4", 2 ],
					"destination" : [ "obj-8", 0 ],
					"hidden" : 0,
					"midpoints" : [  ]
				}

			}
, 			{
				"patchline" : 				{
					"source" : [ "obj-4", 0 ],
					"destination" : [ "obj-5", 1 ],
					"hidden" : 0,
					"midpoints" : [  ]
				}

			}
, 			{
				"patchline" : 				{
					"source" : [ "obj-4", 1 ],
					"destination" : [ "obj-6", 1 ],
					"hidden" : 0,
					"midpoints" : [  ]
				}

			}
, 			{
				"patchline" : 				{
					"source" : [ "obj-1", 0 ],
					"destination" : [ "obj-4", 0 ],
					"hidden" : 0,
					"midpoints" : [  ]
				}

			}
, 			{
				"patchline" : 				{
					"source" : [ "obj-1", 1 ],
					"destination" : [ "obj-3", 1 ],
					"hidden" : 0,
					"midpoints" : [  ]
				}

			}
, 			{
				"patchline" : 				{
					"source" : [ "obj-1", 0 ],
					"destination" : [ "obj-2", 1 ],
					"hidden" : 0,
					"midpoints" : [  ]
				}

			}
, 			{
				"patchline" : 				{
					"source" : [ "obj-8", 0 ],
					"destination" : [ "obj-9", 0 ],
					"hidden" : 0,
					"midpoints" : [  ]
				}

			}
, 			{
				"patchline" : 				{
					"source" : [ "obj-10", 0 ],
					"destination" : [ "obj-11", 0 ],
					"hidden" : 0,
					"midpoints" : [  ]
				}

			}
, 			{
				"patchline" : 				{
					"source" : [ "obj-1", 2 ],
					"destination" : [ "obj-7", 1 ],
					"hidden" : 0,
					"midpoints" : [  ]
				}

			}
 ]
	}

}
